# xmcd
#
# Track frame offsets: 
#        150
#        4015
#        24115
#        31025
#        52540
#        70470
#        88260
#        106470
#        124615
#        132525
#        151655
#        167685
#        187385
#        207950
#        235510
#        248265
#        256950
#
# Disc length: 3660 seconds
#
# Revision: 0
# Processed by: cddbd v1.5.1PL2 Copyright (c) Steve Scherf et al.
# Submitted via: ExactAudioCopy v0.95b4
#
DISCID=ce0e4a11
DTITLE=Marcel - Uptown - 2025 A.D.
DYEAR=2003
DGENRE=Funk
TTITLE0=Alpha - Nexis Sixx
TTITLE1=MotherEarth
TTITLE2=Mission Engaged
TTITLE3=Uptown - 2025 A.D.
TTITLE4=I've Got To Knox F/Coco
TTITLE5=Bounce
TTITLE6=Satisfied --- Atmosphere Mix
TTITLE7=The Love Affair
TTITLE8=Axis - Energy
TTITLE9=Have You Ever (Will You Be Mine)
TTITLE10=Hazy Dayz
TTITLE11=In Her Eyez
TTITLE12=Pretty Baby$
TTITLE13=Not In Love
TTITLE14=Omega - Mission Complete
TTITLE15=The Truth
TTITLE16=Bonus Track - You're The Love Of My Life
EXTD=
EXTT0=
EXTT1=
EXTT2=
EXTT3=
EXTT4=
EXTT5=
EXTT6=
EXTT7=
EXTT8=
EXTT9=
EXTT10=
EXTT11=
EXTT12=
EXTT13=
EXTT14=
EXTT15=
EXTT16=
PLAYORDER=
